<?xml version="1.0" encoding="UTF-8" standalone="no"?>
<svg
   xmlns:dc="http://purl.org/dc/elements/1.1/"
   xmlns:cc="http://creativecommons.org/ns#"
   xmlns:rdf="http://www.w3.org/1999/02/22-rdf-syntax-ns#"
   xmlns:svg="http://www.w3.org/2000/svg"
   xmlns="http://www.w3.org/2000/svg"
   viewBox="0 0 300 180"
   height="180"
   width="300"
   xml:space="preserve"
   id="svg2"
   version="1.1"><metadata
     id="metadata8"><rdf:RDF><cc:Work
         rdf:about=""><dc:format>image/svg+xml</dc:format><dc:type
           rdf:resource="http://purl.org/dc/dcmitype/StillImage" /></cc:Work></rdf:RDF></metadata><defs
     id="defs6" /><g
     transform="matrix(1.3333333,0,0,-1.3333333,0,180)"
     id="g10"><g
       transform="scale(0.1)"
       id="g12"><g
         transform="matrix(2218.8,0,0,-1326,17.08,1336.28)"
         id="g14"><rect
           id="rect16"
           style="fill:#ffffff;fill-opacity:1;fill-rule:nonzero"
           transform="matrix(1,0,0,-1,0,1)"
           height="1"
           width="1"
           y="0"
           x="0" /></g><path
         id="path18"
         style="fill:none;stroke:#231f20;stroke-width:20;stroke-linecap:butt;stroke-linejoin:miter;stroke-miterlimit:10;stroke-dasharray:none;stroke-opacity:1"
         d="M 414,1010 H 734" /><path
         id="path20"
         style="fill:none;stroke:#231f20;stroke-width:10;stroke-linecap:butt;stroke-linejoin:miter;stroke-miterlimit:10;stroke-dasharray:none;stroke-opacity:1"
         d="m 364,1010 100,-40 -20,40 20,40 z" /><path
         id="path22"
         style="fill:#231f20;fill-opacity:1;fill-rule:nonzero;stroke:none"
         d="m 364,1010 100,-40 -20,40 20,40 z" /><path
         id="path24"
         style="fill:none;stroke:#231f20;stroke-width:20;stroke-linecap:butt;stroke-linejoin:miter;stroke-miterlimit:10;stroke-dasharray:none;stroke-opacity:1"
         d="M 94,1010 H 414" /><path
         id="path26"
         style="fill:none;stroke:#231f20;stroke-width:20;stroke-linecap:butt;stroke-linejoin:miter;stroke-miterlimit:10;stroke-dasharray:none;stroke-opacity:1"
         d="m 734,1010 v 0" /><path
         id="path28"
         style="fill:none;stroke:#231f20;stroke-width:20;stroke-linecap:butt;stroke-linejoin:miter;stroke-miterlimit:10;stroke-dasharray:none;stroke-opacity:1"
         d="m 734,370 v 640" /><path
         id="path30"
         style="fill:none;stroke:#231f20;stroke-width:20;stroke-linecap:butt;stroke-linejoin:miter;stroke-miterlimit:10;stroke-dasharray:none;stroke-opacity:1"
         d="M 414,370 H 734" /><path
         id="path32"
         style="fill:none;stroke:#231f20;stroke-width:10;stroke-linecap:butt;stroke-linejoin:miter;stroke-miterlimit:10;stroke-dasharray:none;stroke-opacity:1"
         d="m 364,370 100,-40 -20,40 20,40 z" /><path
         id="path34"
         style="fill:#231f20;fill-opacity:1;fill-rule:nonzero;stroke:none"
         d="m 364,370 100,-40 -20,40 20,40 z" /><path
         id="path36"
         style="fill:none;stroke:#231f20;stroke-width:20;stroke-linecap:butt;stroke-linejoin:miter;stroke-miterlimit:10;stroke-dasharray:none;stroke-opacity:1"
         d="M 94,370 H 414" /><path
         id="path38"
         style="fill:none;stroke:#231f20;stroke-width:20;stroke-linecap:butt;stroke-linejoin:miter;stroke-miterlimit:10;stroke-dasharray:none;stroke-opacity:1"
         d="m 1134,1010 h 400" /><path
         id="path40"
         style="fill:none;stroke:#231f20;stroke-width:10;stroke-linecap:butt;stroke-linejoin:miter;stroke-miterlimit:10;stroke-dasharray:none;stroke-opacity:1"
         d="m 1084,1010 100,-40 -20,40 20,40 z" /><path
         id="path42"
         style="fill:#231f20;fill-opacity:1;fill-rule:nonzero;stroke:none"
         d="m 1084,1010 100,-40 -20,40 20,40 z" /><path
         id="path44"
         style="fill:none;stroke:#231f20;stroke-width:20;stroke-linecap:butt;stroke-linejoin:miter;stroke-miterlimit:10;stroke-dasharray:none;stroke-opacity:1"
         d="m 734,1010 h 400" /><path
         id="path46"
         style="fill:none;stroke:#231f20;stroke-width:20;stroke-linecap:butt;stroke-linejoin:miter;stroke-miterlimit:10;stroke-dasharray:none;stroke-opacity:1"
         d="m 1534,370 v 0" /><path
         id="path48"
         style="fill:none;stroke:#231f20;stroke-width:20;stroke-linecap:butt;stroke-linejoin:miter;stroke-miterlimit:10;stroke-dasharray:none;stroke-opacity:1"
         d="m 734,370 h 800" /><path
         id="path50"
         style="fill:none;stroke:#231f20;stroke-width:20;stroke-linecap:butt;stroke-linejoin:miter;stroke-miterlimit:10;stroke-dasharray:none;stroke-opacity:1"
         d="m 1534,1010 v 0" /><path
         id="path52"
         style="fill:none;stroke:#231f20;stroke-width:20;stroke-linecap:butt;stroke-linejoin:miter;stroke-miterlimit:10;stroke-dasharray:none;stroke-opacity:1"
         d="m 1534,370 v 640" /><path
         id="path54"
         style="fill:none;stroke:#231f20;stroke-width:20;stroke-linecap:butt;stroke-linejoin:miter;stroke-miterlimit:10;stroke-dasharray:none;stroke-opacity:1"
         d="M 1854,1010 H 1534" /><path
         id="path56"
         style="fill:none;stroke:#231f20;stroke-width:10;stroke-linecap:butt;stroke-linejoin:miter;stroke-miterlimit:10;stroke-dasharray:none;stroke-opacity:1"
         d="m 1904,1010 -100,40 20,-40 -20,-40 z" /><path
         id="path58"
         style="fill:#231f20;fill-opacity:1;fill-rule:nonzero;stroke:none"
         d="m 1904,1010 -100,40 20,-40 -20,-40 z" /><path
         id="path60"
         style="fill:none;stroke:#231f20;stroke-width:20;stroke-linecap:butt;stroke-linejoin:miter;stroke-miterlimit:10;stroke-dasharray:none;stroke-opacity:1"
         d="M 2174,1010 H 1854" /><path
         id="path62"
         style="fill:none;stroke:#231f20;stroke-width:20;stroke-linecap:butt;stroke-linejoin:miter;stroke-miterlimit:10;stroke-dasharray:none;stroke-opacity:1"
         d="M 1854,370 H 1534" /><path
         id="path64"
         style="fill:none;stroke:#231f20;stroke-width:10;stroke-linecap:butt;stroke-linejoin:miter;stroke-miterlimit:10;stroke-dasharray:none;stroke-opacity:1"
         d="m 1904,370 -100,40 20,-40 -20,-40 z" /><path
         id="path66"
         style="fill:#231f20;fill-opacity:1;fill-rule:nonzero;stroke:none"
         d="m 1904,370 -100,40 20,-40 -20,-40 z" /><path
         id="path68"
         style="fill:none;stroke:#231f20;stroke-width:20;stroke-linecap:butt;stroke-linejoin:miter;stroke-miterlimit:10;stroke-dasharray:none;stroke-opacity:1"
         d="M 2174,370 H 1854" /><path
         id="path70"
         style="fill:#231f20;fill-opacity:1;fill-rule:nonzero;stroke:none"
         d="m 762.281,1010 c 0,15.62 -12.664,28.28 -28.281,28.28 -15.617,0 -28.281,-12.66 -28.281,-28.28 0,-15.617 12.664,-28.281 28.281,-28.281 15.617,0 28.281,12.664 28.281,28.281" /><path
         id="path72"
         style="fill:#231f20;fill-opacity:1;fill-rule:nonzero;stroke:none"
         d="m 762.281,370 c 0,15.617 -12.664,28.281 -28.281,28.281 -15.617,0 -28.281,-12.664 -28.281,-28.281 0,-15.617 12.664,-28.281 28.281,-28.281 15.617,0 28.281,12.664 28.281,28.281" /><path
         id="path74"
         style="fill:#231f20;fill-opacity:1;fill-rule:nonzero;stroke:none"
         d="m 1562.28,1010 c 0,15.62 -12.66,28.28 -28.28,28.28 -15.62,0 -28.28,-12.66 -28.28,-28.28 0,-15.617 12.66,-28.281 28.28,-28.281 15.62,0 28.28,12.664 28.28,28.281" /><path
         id="path76"
         style="fill:#231f20;fill-opacity:1;fill-rule:nonzero;stroke:none"
         d="m 1562.28,370 c 0,15.617 -12.66,28.281 -28.28,28.281 -15.62,0 -28.28,-12.664 -28.28,-28.281 0,-15.617 12.66,-28.281 28.28,-28.281 15.62,0 28.28,12.664 28.28,28.281" /><g
         transform="scale(10)"
         id="g78"><text
           id="text82"
           style="font-style:italic;font-variant:normal;font-weight:normal;font-size:24.78709984px;font-family:CMMI12;-inkscape-font-specification:CMMI12;writing-mode:lr-tb;fill:#231f20;fill-opacity:1;fill-rule:nonzero;stroke:none"
           transform="matrix(1,0,0,-1,29.5602,114.44)"><tspan
             id="tspan80"
             y="0"
             x="0">k</tspan></text>
<text
           id="text86"
           style="font-variant:normal;font-weight:normal;font-size:20.66259956px;font-family:CMR17;-inkscape-font-specification:CMR17;writing-mode:lr-tb;fill:#231f20;fill-opacity:1;fill-rule:nonzero;stroke:none"
           transform="matrix(1,0,0,-1,42.1602,109.64)"><tspan
             id="tspan84"
             y="0"
             x="0">1</tspan></text>
<text
           id="text90"
           style="font-style:italic;font-variant:normal;font-weight:normal;font-size:24.78709984px;font-family:CMMI12;-inkscape-font-specification:CMMI12;writing-mode:lr-tb;fill:#231f20;fill-opacity:1;fill-rule:nonzero;stroke:none"
           transform="matrix(1,0,0,-1,29.5602,10.8802)"><tspan
             id="tspan88"
             y="0"
             x="0">k</tspan></text>
<text
           id="text94"
           style="font-variant:normal;font-weight:normal;font-size:20.66259956px;font-family:CMR17;-inuperscape-font-specification:CMR17;writing-mode:lr-tb;fill:#231f20;fill-opacity:1;fill-rule:nonzero;stroke:none"
           transform="matrix(1,0,0,-1,42.1602,6.0802)"><tspan
             id="tspan92"
             y="0"
             x="0">2</tspan></text>
<text
           id="text98"
           style="font-style:italic;font-variant:normal;font-weight:normal;font-size:24.78709984px;font-family:CMMI12;-inkscape-font-specification:CMMI12;writing-mode:lr-tb;fill:#231f20;fill-opacity:1;fill-rule:nonzero;stroke:none"
           transform="matrix(1,0,0,-1,173.0802,114.4402)"><tspan
             id="tspan96"
             y="0"
             x="0">k</tspan></text>
<text
           id="text102"
           style="font-variant:normal;font-weight:normal;font-size:20.66259956px;font-family:CMR17;-inkscape-font-specification:CMR17;writing-mode:lr-tb;fill:#231f20;fill-opacity:1;fill-rule:nonzero;stroke:none"
           transform="matrix(1,0,0,-1,185.6802,109.6402)"><tspan
             id="tspan100"
             y="0"
             x="0">4</tspan></text>
<text
           id="text106"
           style="font-variant:normal;font-weight:normal;font-size:24.78709984px;font-family:CMMI12;-inkscape-font-specification:CMMI12;writing-mode:lr-tb;fill:#231f20;fill-opacity:1;fill-rule:nonzero;stroke:none"
           transform="matrix(1,0,0,-1,102.52,74.6004)"><tspan
             id="tspan104"
             y="0"
             x="0">ℓ</tspan></text>
<text
           id="text110"
           style="font-variant:normal;font-weight:normal;font-size:20.66259956px;font-family:CMR17;-inkscape-font-specification:CMR17;writing-mode:lr-tb;fill:#231f20;fill-opacity:1;fill-rule:nonzero;stroke:none"
           transform="matrix(1,0,0,-1,112.72,69.8004)"><tspan
             id="tspan108"
             y="0"
             x="0">1</tspan></text>
<text
           id="text114"
           style="font-style:italic;font-variant:normal;font-weight:normal;font-size:24.78709984px;font-family:CMMI12;-inkscape-font-specification:CMMI12;writing-mode:lr-tb;fill:#231f20;fill-opacity:1;fill-rule:nonzero;stroke:none"
           transform="matrix(1,0,0,-1,173.0802,10.8805)"><tspan
             id="tspan112"
             y="0"
             x="0">k</tspan></text>
<text
           id="text118"
           style="font-variant:normal;font-weight:normal;font-size:20.66259956px;font-family:CMR17;-inkscape-font-specification:CMR17;writing-mode:lr-tb;fill:#231f20;fill-opacity:1;fill-rule:nonzero;stroke:none"
           transform="matrix(1,0,0,-1,185.6802,6.0805)"><tspan
             id="tspan116"
             y="0"
             x="0">3</tspan></text>
<text
           id="text128"
           style="font-variant:normal;font-weight:normal;font-size:24.78709984px;font-family:CMR17;-inkscape-font-specification:CMR17;writing-mode:lr-tb;fill:#231f20;fill-opacity:1;fill-rule:nonzero;stroke:none"
           transform="matrix(1,0,0,-1,106.9603,108.6805)"><tspan
             id="tspan120"
             y="0"
             x="0">1</tspan><tspan
             id="tspan122"
             y="47.8801"
             x="-55.799999">2</tspan><tspan
             id="tspan124"
             y="95.640297"
             x="0">3</tspan><tspan
             id="tspan126"
             y="47.8801"
             x="55.799999">4</tspan></text>
</g><g
         transform="matrix(2227.2,0,0,-4.8,13.48,1341.08)"
         id="g130"><rect
           id="rect132"
           style="fill:#ffffff;fill-opacity:1;fill-rule:nonzero"
           transform="matrix(1,0,0,-1,0,1)"
           height="1"
           width="1"
           y="0"
           x="0" /></g><g
         transform="matrix(4.8,0,0,-1329.6,13.48,1338.68)"
         id="g134"><rect
           id="rect136"
           style="fill:#ffffff;fill-opacity:1;fill-rule:nonzero"
           transform="matrix(1,0,0,-1,0,1)"
           height="1"
           width="1"
           y="0"
           x="0" /></g><g
         transform="matrix(4.8,0,0,-1329.6,2235.88,1338.68)"
         id="g138"><rect
           id="rect140"
           style="fill:#ffffff;fill-opacity:1;fill-rule:nonzero"
           transform="matrix(1,0,0,-1,0,1)"
           height="1"
           width="1"
           y="0"
           x="0" /></g><g
         transform="matrix(2227.2,0,0,-4.8,13.48,11.48)"
         id="g142"><rect
           id="rect144"
           style="fill:#ffffff;fill-opacity:1;fill-rule:nonzero"
           transform="matrix(1,0,0,-1,0,1)"
           height="1"
           width="1"
           y="0"
           x="0" /></g></g></g></svg>
